<svg xmlns="http://www.w3.org/2000/svg" width="1600" height="900" viewBox="0 0 1600 900" fill="none"><defs><linearGradient id="brand" x1="0" y1="6" x2="0" y2="25" gradientUnits="userSpaceOnUse"><stop offset="0" stop-color="#ffd36b"/><stop offset="1" stop-color="#e0901a"/></linearGradient><linearGradient id="sheen" x1="0" y1="0" x2="0" y2="1"><stop offset="0.1" stop-color="#fffaf0"/><stop offset="1" stop-color="#ffce85"/></linearGradient><linearGradient id="btn" x1="0" y1="0" x2="0" y2="1"><stop offset="0" stop-color="#ffd36b"/><stop offset="1" stop-color="#e0901a"/></linearGradient><filter id="glow" x="-60%" y="-60%" width="220%" height="220%" color-interpolation-filters="sRGB"><feGaussianBlur in="SourceGraphic" stdDeviation="0.8" result="b"/><feMerge><feMergeNode in="b"/><feMergeNode in="b"/><feMergeNode in="SourceGraphic"/></feMerge></filter><radialGradient id="g1" cx="50%" cy="50%" r="50%"><stop offset="0" stop-color="#ffb534" stop-opacity="0.15"/><stop offset="1" stop-color="#ffb534" stop-opacity="0"/></radialGradient><radialGradient id="g2" cx="50%" cy="50%" r="50%"><stop offset="0" stop-color="#ffb534" stop-opacity="0.1"/><stop offset="1" stop-color="#ffb534" stop-opacity="0"/></radialGradient><radialGradient id="markglow" cx="50%" cy="50%" r="50%"><stop offset="0" stop-color="#ffb534" stop-opacity="0.4"/><stop offset="1" stop-color="#ffb534" stop-opacity="0"/></radialGradient><radialGradient id="vig" cx="50%" cy="44%" r="74%"><stop offset="0.55" stop-color="#000" stop-opacity="0"/><stop offset="1" stop-color="#000" stop-opacity="0.5"/></radialGradient><radialGradient id="gridmask" cx="50%" cy="40%" r="62%"><stop offset="0" stop-color="#fff"/><stop offset="0.66" stop-color="#fff" stop-opacity="0.26"/><stop offset="1" stop-color="#000"/></radialGradient><mask id="gm"><rect width="100%" height="100%" fill="url(#gridmask)"/></mask></defs><rect width="1600" height="900" fill="#0a0805"/><ellipse cx="1180" cy="120" rx="560" ry="420" fill="url(#g1)"/><ellipse cx="260" cy="720" rx="400" ry="280" fill="url(#g2)"/><g stroke="#ffffff" stroke-opacity="0.045" stroke-width="1" mask="url(#gm)"><line x1="100" y1="0" x2="100" y2="900"/><line x1="200" y1="0" x2="200" y2="900"/><line x1="300" y1="0" x2="300" y2="900"/><line x1="400" y1="0" x2="400" y2="900"/><line x1="500" y1="0" x2="500" y2="900"/><line x1="600" y1="0" x2="600" y2="900"/><line x1="700" y1="0" x2="700" y2="900"/><line x1="800" y1="0" x2="800" y2="900"/><line x1="900" y1="0" x2="900" y2="900"/><line x1="1000" y1="0" x2="1000" y2="900"/><line x1="1100" y1="0" x2="1100" y2="900"/><line x1="1200" y1="0" x2="1200" y2="900"/><line x1="1300" y1="0" x2="1300" y2="900"/><line x1="1400" y1="0" x2="1400" y2="900"/><line x1="1500" y1="0" x2="1500" y2="900"/><line x1="0" y1="100" x2="1600" y2="100"/><line x1="0" y1="200" x2="1600" y2="200"/><line x1="0" y1="300" x2="1600" y2="300"/><line x1="0" y1="400" x2="1600" y2="400"/><line x1="0" y1="500" x2="1600" y2="500"/><line x1="0" y1="600" x2="1600" y2="600"/><line x1="0" y1="700" x2="1600" y2="700"/><line x1="0" y1="800" x2="1600" y2="800"/></g><text x="100" y="270" font-family="Inter" font-weight="600" font-size="25" letter-spacing="6" fill="#c79a45">REAL-TIME ALERTS</text><text x="100" y="392" font-family="Space Grotesk" font-weight="700" font-size="80" letter-spacing="-2.5" fill="#f5f1e8">Smart money moves.</text><text x="100" y="480" font-family="Space Grotesk" font-weight="700" font-size="80" letter-spacing="-2.5" fill="#f5f1e8">You get <tspan fill="#ffb534">this.</tspan></text><text x="100" y="556" font-family="Inter" font-weight="500" font-size="28" fill="#b8a888">Scored wallet · anti-rug fused · in your Telegram, in seconds.</text><text x="100" y="650" font-family="Inter" font-weight="700" font-size="32" fill="#ffd98a">→   t.me/smartapefun</text><circle cx="926" cy="220" r="26" fill="#000"/><g transform="translate(906 200) scale(1.25)"><g fill="url(#brand)"><circle cx="8.6" cy="11" r="3.1"/><circle cx="23.4" cy="11" r="3.1"/><circle cx="16" cy="15.7" r="8.3"/><circle cx="16" cy="18.7" r="4" fill="#000"/><circle cx="12.5" cy="13.7" r="1.55" fill="#000"/><circle cx="19.5" cy="13.7" r="1.55" fill="#000"/><circle cx="14.4" cy="18.5" r="0.85"/><circle cx="17.6" cy="18.5" r="0.85"/></g></g><text x="966" y="214" font-family="Inter" font-weight="700" font-size="20" fill="#8fb7e0">smartape alerts</text><text x="966" y="238" font-family="Inter" font-size="15" fill="#7a8693">channel · 13:58</text><rect x="900" y="268" width="600" height="348" rx="20" fill="#18222c" stroke="#ffffff" stroke-opacity="0.06"/><circle cx="934" cy="312" r="9" fill="#22e5a4"/><text x="956" y="320" font-family="Space Grotesk" font-weight="700" font-size="28" fill="#f0f4f8">BUY · $Bonk</text><text x="930" y="364" font-family="Inter" font-size="21" fill="#aeb9c4">Smart · <tspan fill="#8fb7e0">3LVL…4Vh5</tspan> · <tspan fill="#f0f4f8" font-weight="600">$164</tspan></text><text x="930" y="406" font-family="Inter" font-size="20" fill="#aeb9c4">Liq $610k    ·    MC $385M    ·    2.4y</text><path d="M930 444 l11 -19 l11 19 z" fill="none" stroke="#ffce54" stroke-width="2.4" stroke-linejoin="round"/><rect x="940" y="433 " width="2.4" height="7" fill="#ffce54"/><circle cx="941.2" cy="443" r="1.3" fill="#ffce54"/><text x="962" y="448" font-family="Inter" font-size="20" fill="#ffce54">Caution · Mutable metadata</text><text x="930" y="492" font-family="JetBrains Mono,monospace" font-size="18" fill="#7a8693">DezXAZ8z…aB1pPB263</text><text x="930" y="536" font-family="Inter" font-weight="600" font-size="20"><tspan fill="#6cb1ff">Chart</tspan><tspan fill="#7a8693">  ·  </tspan><tspan fill="#6cb1ff">Website</tspan><tspan fill="#7a8693">  ·  </tspan><tspan fill="#6cb1ff">X</tspan><tspan fill="#7a8693">  ·  </tspan><tspan fill="#6cb1ff">Telegram</tspan></text><g transform="translate(80 44) scale(1.6)"><rect x="0" y="0" width="32" height="32" rx="9" fill="#000000"/><g filter="url(#glow)" fill="url(#brand)"><circle cx="8.6" cy="11" r="3.1"/><circle cx="23.4" cy="11" r="3.1"/><circle cx="16" cy="15.7" r="8.3"/><circle cx="16" cy="18.7" r="4" fill="#000000"/><circle cx="12.5" cy="13.7" r="1.55" fill="#000000"/><circle cx="19.5" cy="13.7" r="1.55" fill="#000000"/><circle cx="14.4" cy="18.5" r="0.85"/><circle cx="17.6" cy="18.5" r="0.85"/></g></g><text x="142" y="84" font-family="Space Grotesk" font-weight="700" font-size="28" letter-spacing="-1" fill="#f5f1e8">SmartApe</text><text x="100" y="840" font-family="Inter" font-weight="600" font-size="22"><tspan fill="#ffd98a">smartape.fun</tspan><tspan fill="#5f564a">     ·     </tspan><tspan fill="#ffd98a">t.me/smartapefun</tspan><tspan fill="#5f564a">     ·     </tspan><tspan fill="#9b9183">@smartape_fun</tspan></text><rect width="1600" height="900" fill="url(#vig)"/></svg>