<svg xmlns="http://www.w3.org/2000/svg" width="1600" height="900" viewBox="0 0 1600 900" fill="none">
<defs>
<linearGradient id="brand" x1="0" y1="6" x2="0" y2="25" gradientUnits="userSpaceOnUse"><stop offset="0" stop-color="#ffd36b"/><stop offset="1" stop-color="#e0901a"/></linearGradient>
<linearGradient id="sheen" x1="0" y1="0" x2="0" y2="1"><stop offset="0.1" stop-color="#fffaf0"/><stop offset="1" stop-color="#ffce85"/></linearGradient>
<linearGradient id="btn" x1="0" y1="0" x2="0" y2="1"><stop offset="0" stop-color="#ffd36b"/><stop offset="1" stop-color="#e0901a"/></linearGradient>
<filter id="glow" x="-60%" y="-60%" width="220%" height="220%" color-interpolation-filters="sRGB"><feGaussianBlur in="SourceGraphic" stdDeviation="0.8" result="b"/><feMerge><feMergeNode in="b"/><feMergeNode in="b"/><feMergeNode in="SourceGraphic"/></feMerge></filter>
<radialGradient id="g1" cx="50%" cy="50%" r="50%"><stop offset="0" stop-color="#ffb534" stop-opacity="0.16"/><stop offset="1" stop-color="#ffb534" stop-opacity="0"/></radialGradient>
<radialGradient id="hero" cx="50%" cy="50%" r="50%"><stop offset="0" stop-color="#ffb534" stop-opacity="0.13"/><stop offset="1" stop-color="#ffb534" stop-opacity="0"/></radialGradient>
<radialGradient id="gridmask" cx="42%" cy="38%" r="62%"><stop offset="0" stop-color="#fff"/><stop offset="0.7" stop-color="#fff" stop-opacity="0.28"/><stop offset="1" stop-color="#000"/></radialGradient>
<mask id="gm"><rect width="1600" height="900" fill="url(#gridmask)"/></mask>
</defs>
<rect width="1600" height="900" fill="#0a0805"/>
<ellipse cx="1180" cy="120" rx="560" ry="420" fill="url(#hero)"/>
<ellipse cx="280" cy="760" rx="420" ry="300" fill="url(#g1)"/>
<g stroke="#ffffff" stroke-opacity="0.045" stroke-width="1" mask="url(#gm)"><line x1="100" y1="0" x2="100" y2="900"/><line x1="200" y1="0" x2="200" y2="900"/><line x1="300" y1="0" x2="300" y2="900"/><line x1="400" y1="0" x2="400" y2="900"/><line x1="500" y1="0" x2="500" y2="900"/><line x1="600" y1="0" x2="600" y2="900"/><line x1="700" y1="0" x2="700" y2="900"/><line x1="800" y1="0" x2="800" y2="900"/><line x1="900" y1="0" x2="900" y2="900"/><line x1="1000" y1="0" x2="1000" y2="900"/><line x1="1100" y1="0" x2="1100" y2="900"/><line x1="1200" y1="0" x2="1200" y2="900"/><line x1="1300" y1="0" x2="1300" y2="900"/><line x1="1400" y1="0" x2="1400" y2="900"/><line x1="1500" y1="0" x2="1500" y2="900"/><line x1="0" y1="100" x2="1600" y2="100"/><line x1="0" y1="200" x2="1600" y2="200"/><line x1="0" y1="300" x2="1600" y2="300"/><line x1="0" y1="400" x2="1600" y2="400"/><line x1="0" y1="500" x2="1600" y2="500"/><line x1="0" y1="600" x2="1600" y2="600"/><line x1="0" y1="700" x2="1600" y2="700"/><line x1="0" y1="800" x2="1600" y2="800"/></g>
<g transform="translate(80 44) scale(1.9)"><rect x="0" y="0" width="32" height="32" rx="9" fill="#000000"/><g filter="url(#glow)" fill="url(#brand)"><circle cx="8.6" cy="11" r="3.1"/><circle cx="23.4" cy="11" r="3.1"/><circle cx="16" cy="15.7" r="8.3"/><circle cx="16" cy="18.7" r="4" fill="#000000"/><circle cx="12.5" cy="13.7" r="1.55" fill="#000000"/><circle cx="19.5" cy="13.7" r="1.55" fill="#000000"/><circle cx="14.4" cy="18.5" r="0.85"/><circle cx="17.6" cy="18.5" r="0.85"/></g></g>
<text x="150" y="90" font-family="Space Grotesk" font-weight="700" font-size="34" letter-spacing="-1" fill="#f5f1e8">SmartApe</text>
<rect x="1330" y="46" width="190" height="54" rx="27" fill="url(#btn)"/><text x="1425" y="80" text-anchor="middle" font-family="Inter" font-weight="700" font-size="20" fill="#1c1206">Get Early Access</text>
<line x1="80" y1="128" x2="1520" y2="128" stroke="#ffffff" stroke-opacity="0.06"/>
<rect x="80" y="180" width="392" height="38" rx="19" fill="#ffb534" fill-opacity="0.10" stroke="#ffb534" stroke-opacity="0.38"/><circle cx="102" cy="199" r="5" fill="#ffb534"/><text x="118" y="205" font-family="Inter" font-weight="600" font-size="15" letter-spacing="2" fill="#ffd98a">SOLANA-FIRST SMART-MONEY TRACKER</text>
<rect x="486" y="180" width="104" height="38" rx="19" fill="#ffb534" fill-opacity="0.10" stroke="#ffb534" stroke-opacity="0.38"/><circle cx="508" cy="199" r="5" fill="#ffb534"/><text x="524" y="205" font-family="Inter" font-weight="600" font-size="15" letter-spacing="2" fill="#ffd98a">LIVE</text>
<rect x="604" y="180" width="210" height="38" rx="19" fill="#ffb534" fill-opacity="0.10" stroke="#ffb534" stroke-opacity="0.38"/><text x="624" y="205" font-family="Inter" font-weight="600" font-size="15" letter-spacing="2" fill="#ffd98a">CA: COMING SOON</text>
<text x="78" y="312" font-family="Space Grotesk" font-weight="700" font-size="78" letter-spacing="-2.5" fill="url(#sheen)">Follow the</text>
<text x="78" y="392" font-family="Space Grotesk" font-weight="700" font-size="78" letter-spacing="-2.5" fill="url(#sheen)">smartest money</text>
<text x="78" y="472" font-family="Space Grotesk" font-weight="700" font-size="78" letter-spacing="-2.5" fill="url(#sheen)">on Solana.</text>
<text x="80" y="548" font-family="Inter" font-weight="500" font-size="25" fill="#b8a888">SmartApe scores profitable on-chain wallets and alerts you</text>
<text x="80" y="584" font-family="Inter" font-weight="500" font-size="25" fill="#b8a888">the second they ape in — segmented, anti-rug fused, real-time.</text>
<rect x="80" y="624" width="246" height="62" rx="31" fill="url(#btn)"/><text x="203" y="663" text-anchor="middle" font-family="Inter" font-weight="700" font-size="22" fill="#1c1206">Get Early Access</text>
<rect x="344" y="624" width="290" height="62" rx="31" fill="none" stroke="#ffffff" stroke-opacity="0.18"/><text x="489" y="663" text-anchor="middle" font-family="Inter" font-weight="600" font-size="22" fill="#efe9dc">Open the terminal  →</text>
<text x="82" y="772" font-family="Space Grotesk" font-weight="700" font-size="42" fill="#f5f1e8">4<tspan font-size="20" font-weight="500" fill="#9b9183" dx="10">Wallet segments</tspan></text>
<text x="362" y="772" font-family="Space Grotesk" font-weight="700" font-size="42" fill="#f5f1e8">5<tspan font-size="20" font-weight="500" fill="#9b9183" dx="10">Chains</tspan></text>
<text x="512" y="772" font-family="Space Grotesk" font-weight="700" font-size="42" fill="#f5f1e8">5<tspan font-size="20" font-weight="500" fill="#9b9183" dx="10">Languages</tspan></text>
<rect x="876" y="176" width="624" height="566" rx="22" fill="#13100a" fill-opacity="0.92" stroke="#ffffff" stroke-opacity="0.08"/><circle cx="906" cy="220" r="6" fill="#ffb534"/><text x="924" y="228" font-family="Space Grotesk" font-weight="700" font-size="26" fill="#f0ebe0">Smart Money Feed</text><rect x="1382" y="206" width="92" height="30" rx="15" fill="#ffb534" fill-opacity="0.13" stroke="#ffb534" stroke-opacity="0.4"/><text x="1428" y="226" text-anchor="middle" font-family="Inter" font-weight="600" font-size="15" letter-spacing="2" fill="#ffd98a">LIVE</text><line x1="876" y1="254" x2="1500" y2="254" stroke="#ffffff" stroke-opacity="0.07"/><rect x="900" y="288" width="42" height="42" rx="11" fill="#1c1810"/><circle cx="921" cy="309" r="7" fill="#22e5a4"/><text x="958" y="306" font-family="JetBrains Mono,monospace" font-size="23" fill="#f0ebe0">2WoD…PnoV</text><text x="958" y="330" font-family="Inter" font-size="17" fill="#22e5a4">Smart</text><rect x="1124" y="292" width="68" height="28" rx="6" fill="rgba(255,181,52,0.15)"/><text x="1158" y="311" text-anchor="middle" font-family="JetBrains Mono,monospace" font-weight="700" font-size="15" fill="#ffd98a">BUY</text><circle cx="1218" cy="300" r="6" fill="#ffb534"/><text x="1232" y="308" font-family="JetBrains Mono,monospace" font-size="22" fill="#f0ebe0">$MEW</text><text x="1474" y="302" text-anchor="end" font-family="JetBrains Mono,monospace" font-size="22" fill="#f0ebe0">$6.8k</text><text x="1474" y="326" text-anchor="end" font-family="JetBrains Mono,monospace" font-size="16" fill="#9b9183">1s</text><line x1="876" y1="357" x2="1500" y2="357" stroke="#ffffff" stroke-opacity="0.05"/><rect x="900" y="383" width="42" height="42" rx="11" fill="#1c1810"/><circle cx="921" cy="404" r="7" fill="#22e5a4"/><text x="958" y="401" font-family="JetBrains Mono,monospace" font-size="23" fill="#f0ebe0">7TKa…aGsW</text><text x="958" y="425" font-family="Inter" font-size="17" fill="#22e5a4">Smart</text><rect x="1124" y="387" width="68" height="28" rx="6" fill="rgba(255,122,122,0.15)"/><text x="1158" y="406" text-anchor="middle" font-family="JetBrains Mono,monospace" font-weight="700" font-size="15" fill="#ff9b9b">SELL</text><circle cx="1218" cy="395" r="6" fill="#ffb534"/><text x="1232" y="403" font-family="JetBrains Mono,monospace" font-size="22" fill="#f0ebe0">$CHILLGUY</text><text x="1474" y="397" text-anchor="end" font-family="JetBrains Mono,monospace" font-size="22" fill="#f0ebe0">$15k</text><text x="1474" y="421" text-anchor="end" font-family="JetBrains Mono,monospace" font-size="16" fill="#9b9183">2s</text><line x1="876" y1="452" x2="1500" y2="452" stroke="#ffffff" stroke-opacity="0.05"/><rect x="900" y="478" width="42" height="42" rx="11" fill="#1c1810"/><circle cx="921" cy="499" r="7" fill="#22e5a4"/><text x="958" y="496" font-family="JetBrains Mono,monospace" font-size="23" fill="#f0ebe0">XFQE…nVEF</text><text x="958" y="520" font-family="Inter" font-size="17" fill="#22e5a4">Smart</text><rect x="1124" y="482" width="68" height="28" rx="6" fill="rgba(255,181,52,0.15)"/><text x="1158" y="501" text-anchor="middle" font-family="JetBrains Mono,monospace" font-weight="700" font-size="15" fill="#ffd98a">BUY</text><circle cx="1218" cy="490" r="6" fill="#ffb534"/><text x="1232" y="498" font-family="JetBrains Mono,monospace" font-size="22" fill="#f0ebe0">$ai16z</text><text x="1474" y="492" text-anchor="end" font-family="JetBrains Mono,monospace" font-size="22" fill="#f0ebe0">$21k</text><text x="1474" y="516" text-anchor="end" font-family="JetBrains Mono,monospace" font-size="16" fill="#9b9183">3s</text><line x1="876" y1="547" x2="1500" y2="547" stroke="#ffffff" stroke-opacity="0.05"/><rect x="900" y="573" width="42" height="42" rx="11" fill="#1c1810"/><circle cx="921" cy="594" r="7" fill="#22e5a4"/><text x="958" y="591" font-family="JetBrains Mono,monospace" font-size="23" fill="#f0ebe0">xZ9t…irhw</text><text x="958" y="615" font-family="Inter" font-size="17" fill="#22e5a4">Smart</text><rect x="1124" y="577" width="68" height="28" rx="6" fill="rgba(255,181,52,0.15)"/><text x="1158" y="596" text-anchor="middle" font-family="JetBrains Mono,monospace" font-weight="700" font-size="15" fill="#ffd98a">BUY</text><circle cx="1218" cy="585" r="6" fill="#ffb534"/><text x="1232" y="593" font-family="JetBrains Mono,monospace" font-size="22" fill="#f0ebe0">$MEW</text><text x="1474" y="587" text-anchor="end" font-family="JetBrains Mono,monospace" font-size="22" fill="#f0ebe0">$17k</text><text x="1474" y="611" text-anchor="end" font-family="JetBrains Mono,monospace" font-size="16" fill="#9b9183">6s</text><line x1="876" y1="642" x2="1500" y2="642" stroke="#ffffff" stroke-opacity="0.05"/><rect x="900" y="668" width="42" height="42" rx="11" fill="#1c1810"/><circle cx="921" cy="689" r="7" fill="#22e5a4"/><text x="958" y="686" font-family="JetBrains Mono,monospace" font-size="23" fill="#f0ebe0">EXWt…jZBn</text><text x="958" y="710" font-family="Inter" font-size="17" fill="#22e5a4">Smart</text><rect x="1124" y="672" width="68" height="28" rx="6" fill="rgba(255,181,52,0.15)"/><text x="1158" y="691" text-anchor="middle" font-family="JetBrains Mono,monospace" font-weight="700" font-size="15" fill="#ffd98a">BUY</text><circle cx="1218" cy="680" r="6" fill="#ffb534"/><text x="1232" y="688" font-family="JetBrains Mono,monospace" font-size="22" fill="#f0ebe0">$POPCAT</text><text x="1474" y="682" text-anchor="end" font-family="JetBrains Mono,monospace" font-size="22" fill="#f0ebe0">$12k</text><text x="1474" y="706" text-anchor="end" font-family="JetBrains Mono,monospace" font-size="16" fill="#9b9183">8s</text>
<text x="80" y="840" font-family="Inter" font-weight="600" font-size="22"><tspan fill="#ffd98a">smartape.fun</tspan><tspan fill="#5f564a">     ·     </tspan><tspan fill="#ffd98a">t.me/smartapefun</tspan><tspan fill="#5f564a">     ·     </tspan><tspan fill="#9b9183">@smartape_fun</tspan></text>
</svg>