<svg xmlns="http://www.w3.org/2000/svg" width="1080" height="1080" viewBox="0 0 1080 1080" fill="none">
<defs><linearGradient id="brand" x1="0" y1="6" x2="0" y2="25" gradientUnits="userSpaceOnUse"><stop offset="0" stop-color="#ffd36b"/><stop offset="1" stop-color="#e0901a"/></linearGradient><linearGradient id="sheen" x1="0" y1="0" x2="0" y2="1"><stop offset="0.1" stop-color="#fffaf0"/><stop offset="1" stop-color="#ffce85"/></linearGradient><filter id="glow" x="-60%" y="-60%" width="220%" height="220%" color-interpolation-filters="sRGB"><feGaussianBlur in="SourceGraphic" stdDeviation="0.8" result="b"/><feMerge><feMergeNode in="b"/><feMergeNode in="b"/><feMergeNode in="SourceGraphic"/></feMerge></filter><radialGradient id="g1" cx="50%" cy="50%" r="50%"><stop offset="0" stop-color="#ffb534" stop-opacity="0.17"/><stop offset="1" stop-color="#ffb534" stop-opacity="0"/></radialGradient><radialGradient id="vig" cx="50%" cy="40%" r="76%"><stop offset="0.5" stop-color="#000" stop-opacity="0"/><stop offset="1" stop-color="#000" stop-opacity="0.45"/></radialGradient><radialGradient id="gridmask" cx="50%" cy="34%" r="62%"><stop offset="0" stop-color="#fff"/><stop offset="0.66" stop-color="#fff" stop-opacity="0.26"/><stop offset="1" stop-color="#000"/></radialGradient><mask id="gm"><rect width="100%" height="100%" fill="url(#gridmask)"/></mask></defs>
<rect width="1080" height="1080" fill="#0a0805"/>
<ellipse cx="540" cy="180" rx="640" ry="380" fill="url(#g1)"/>
<g stroke="#ffffff" stroke-opacity="0.045" stroke-width="1" mask="url(#gm)"><line x1="100" y1="0" x2="100" y2="1080"/><line x1="200" y1="0" x2="200" y2="1080"/><line x1="300" y1="0" x2="300" y2="1080"/><line x1="400" y1="0" x2="400" y2="1080"/><line x1="500" y1="0" x2="500" y2="1080"/><line x1="600" y1="0" x2="600" y2="1080"/><line x1="700" y1="0" x2="700" y2="1080"/><line x1="800" y1="0" x2="800" y2="1080"/><line x1="900" y1="0" x2="900" y2="1080"/><line x1="1000" y1="0" x2="1000" y2="1080"/><line x1="0" y1="100" x2="1080" y2="100"/><line x1="0" y1="200" x2="1080" y2="200"/><line x1="0" y1="300" x2="1080" y2="300"/><line x1="0" y1="400" x2="1080" y2="400"/><line x1="0" y1="500" x2="1080" y2="500"/><line x1="0" y1="600" x2="1080" y2="600"/><line x1="0" y1="700" x2="1080" y2="700"/><line x1="0" y1="800" x2="1080" y2="800"/><line x1="0" y1="900" x2="1080" y2="900"/><line x1="0" y1="1000" x2="1080" y2="1000"/></g>
<g transform="translate(70 56) scale(1.75)"><rect x="0" y="0" width="32" height="32" rx="9" fill="#000000"/><g filter="url(#glow)" fill="url(#brand)"><circle cx="8.6" cy="11" r="3.1"/><circle cx="23.4" cy="11" r="3.1"/><circle cx="16" cy="15.7" r="8.3"/><circle cx="16" cy="18.7" r="4" fill="#000000"/><circle cx="12.5" cy="13.7" r="1.55" fill="#000000"/><circle cx="19.5" cy="13.7" r="1.55" fill="#000000"/><circle cx="14.4" cy="18.5" r="0.85"/><circle cx="17.6" cy="18.5" r="0.85"/></g></g>
<text x="146" y="102" font-family="Space Grotesk" font-weight="700" font-size="34" letter-spacing="-1" fill="#f5f1e8">SmartApe</text>
<rect x="884" y="66" width="126" height="44" rx="22" fill="#ffb534" fill-opacity="0.12" stroke="#ffb534" stroke-opacity="0.45"/><circle cx="916" cy="88" r="5" fill="#ffb534"/><text x="966" y="95" text-anchor="middle" font-family="Inter" font-weight="600" font-size="16" letter-spacing="2" fill="#ffd98a">LIVE</text>
<line x1="70" y1="148" x2="1010" y2="148" stroke="#ffffff" stroke-opacity="0.06"/>
<text x="70" y="262" font-family="Space Grotesk" font-weight="700" font-size="68" letter-spacing="-2.5" fill="url(#sheen)">Follow the smartest</text>
<text x="70" y="336" font-family="Space Grotesk" font-weight="700" font-size="68" letter-spacing="-2.5" fill="url(#sheen)">money on Solana.</text>
<text x="72" y="398" font-family="Inter" font-weight="500" font-size="26" fill="#b8a888">Scored wallets · anti-rug fused · real-time Telegram alerts.</text>
<rect x="70" y="452" width="940" height="468" rx="22" fill="#13100a" fill-opacity="0.92" stroke="#ffffff" stroke-opacity="0.08"/><circle cx="104" cy="498" r="6" fill="#ffb534"/><text x="124" y="506" font-family="Space Grotesk" font-weight="700" font-size="27" fill="#f0ebe0">Smart Money Feed</text><rect x="900" y="484" width="84" height="30" rx="15" fill="#ffb534" fill-opacity="0.13" stroke="#ffb534" stroke-opacity="0.4"/><text x="942" y="504" text-anchor="middle" font-family="Inter" font-weight="600" font-size="15" letter-spacing="2" fill="#ffd98a">LIVE</text><line x1="70" y1="534" x2="1010" y2="534" stroke="#ffffff" stroke-opacity="0.07"/><rect x="96" y="566" width="44" height="44" rx="12" fill="#1c1810"/><circle cx="118" cy="588" r="7" fill="#22e5a4"/><text x="158" y="584" font-family="JetBrains Mono,monospace" font-size="24" fill="#f0ebe0">2WoD…PnoV</text><text x="158" y="609" font-family="Inter" font-size="17" fill="#22e5a4">Smart</text><rect x="462" y="570" width="70" height="28" rx="6" fill="rgba(255,181,52,0.15)"/><text x="497" y="590" text-anchor="middle" font-family="JetBrains Mono,monospace" font-weight="700" font-size="15" fill="#ffd98a">BUY</text><circle cx="568" cy="579" r="6" fill="#ffb534"/><text x="584" y="587" font-family="JetBrains Mono,monospace" font-size="23" fill="#f0ebe0">$MEW</text><text x="980" y="582" text-anchor="end" font-family="JetBrains Mono,monospace" font-size="23" fill="#f0ebe0">$6.8k</text><text x="980" y="608" text-anchor="end" font-family="JetBrains Mono,monospace" font-size="16" fill="#9b9183">1s</text><line x1="70" y1="636" x2="1010" y2="636" stroke="#ffffff" stroke-opacity="0.05"/><rect x="96" y="660" width="44" height="44" rx="12" fill="#1c1810"/><circle cx="118" cy="682" r="7" fill="#22e5a4"/><text x="158" y="678" font-family="JetBrains Mono,monospace" font-size="24" fill="#f0ebe0">7TKa…aGsW</text><text x="158" y="703" font-family="Inter" font-size="17" fill="#22e5a4">Smart</text><rect x="462" y="664" width="70" height="28" rx="6" fill="rgba(255,122,122,0.15)"/><text x="497" y="684" text-anchor="middle" font-family="JetBrains Mono,monospace" font-weight="700" font-size="15" fill="#ff9b9b">SELL</text><circle cx="568" cy="673" r="6" fill="#ffb534"/><text x="584" y="681" font-family="JetBrains Mono,monospace" font-size="23" fill="#f0ebe0">$CHILLGUY</text><text x="980" y="676" text-anchor="end" font-family="JetBrains Mono,monospace" font-size="23" fill="#f0ebe0">$15k</text><text x="980" y="702" text-anchor="end" font-family="JetBrains Mono,monospace" font-size="16" fill="#9b9183">2s</text><line x1="70" y1="730" x2="1010" y2="730" stroke="#ffffff" stroke-opacity="0.05"/><rect x="96" y="754" width="44" height="44" rx="12" fill="#1c1810"/><circle cx="118" cy="776" r="7" fill="#22e5a4"/><text x="158" y="772" font-family="JetBrains Mono,monospace" font-size="24" fill="#f0ebe0">XFQE…nVEF</text><text x="158" y="797" font-family="Inter" font-size="17" fill="#22e5a4">Smart</text><rect x="462" y="758" width="70" height="28" rx="6" fill="rgba(255,181,52,0.15)"/><text x="497" y="778" text-anchor="middle" font-family="JetBrains Mono,monospace" font-weight="700" font-size="15" fill="#ffd98a">BUY</text><circle cx="568" cy="767" r="6" fill="#ffb534"/><text x="584" y="775" font-family="JetBrains Mono,monospace" font-size="23" fill="#f0ebe0">$ai16z</text><text x="980" y="770" text-anchor="end" font-family="JetBrains Mono,monospace" font-size="23" fill="#f0ebe0">$21k</text><text x="980" y="796" text-anchor="end" font-family="JetBrains Mono,monospace" font-size="16" fill="#9b9183">3s</text><line x1="70" y1="824" x2="1010" y2="824" stroke="#ffffff" stroke-opacity="0.05"/><rect x="96" y="848" width="44" height="44" rx="12" fill="#1c1810"/><circle cx="118" cy="870" r="7" fill="#22e5a4"/><text x="158" y="866" font-family="JetBrains Mono,monospace" font-size="24" fill="#f0ebe0">EXWt…jZBn</text><text x="158" y="891" font-family="Inter" font-size="17" fill="#22e5a4">Smart</text><rect x="462" y="852" width="70" height="28" rx="6" fill="rgba(255,181,52,0.15)"/><text x="497" y="872" text-anchor="middle" font-family="JetBrains Mono,monospace" font-weight="700" font-size="15" fill="#ffd98a">BUY</text><circle cx="568" cy="861" r="6" fill="#ffb534"/><text x="584" y="869" font-family="JetBrains Mono,monospace" font-size="23" fill="#f0ebe0">$POPCAT</text><text x="980" y="864" text-anchor="end" font-family="JetBrains Mono,monospace" font-size="23" fill="#f0ebe0">$12k</text><text x="980" y="890" text-anchor="end" font-family="JetBrains Mono,monospace" font-size="16" fill="#9b9183">8s</text>
<text x="540" y="985" text-anchor="middle" font-family="Inter" font-weight="700" font-size="26"><tspan fill="#ffd98a">smartape.fun</tspan><tspan fill="#5f564a">     ·     </tspan><tspan fill="#ffd98a">t.me/smartapefun</tspan><tspan fill="#5f564a">     ·     </tspan><tspan fill="#9b9183">@smartape_fun</tspan></text>
<rect width="1080" height="1080" fill="url(#vig)"/>
</svg>