<svg xmlns="http://www.w3.org/2000/svg" width="1080" height="1080" viewBox="0 0 1080 1080" fill="none"><defs><linearGradient id="brand" x1="0" y1="6" x2="0" y2="25" gradientUnits="userSpaceOnUse"><stop offset="0" stop-color="#ffd36b"/><stop offset="1" stop-color="#e0901a"/></linearGradient><linearGradient id="sheen" x1="0" y1="0" x2="0" y2="1"><stop offset="0.1" stop-color="#fffaf0"/><stop offset="1" stop-color="#ffce85"/></linearGradient><linearGradient id="btn" x1="0" y1="0" x2="0" y2="1"><stop offset="0" stop-color="#ffd36b"/><stop offset="1" stop-color="#e0901a"/></linearGradient><filter id="glow" x="-60%" y="-60%" width="220%" height="220%" color-interpolation-filters="sRGB"><feGaussianBlur in="SourceGraphic" stdDeviation="0.8" result="b"/><feMerge><feMergeNode in="b"/><feMergeNode in="b"/><feMergeNode in="SourceGraphic"/></feMerge></filter><radialGradient id="g1" cx="50%" cy="50%" r="50%"><stop offset="0" stop-color="#ffb534" stop-opacity="0.15"/><stop offset="1" stop-color="#ffb534" stop-opacity="0"/></radialGradient><radialGradient id="g2" cx="50%" cy="50%" r="50%"><stop offset="0" stop-color="#ffb534" stop-opacity="0.1"/><stop offset="1" stop-color="#ffb534" stop-opacity="0"/></radialGradient><radialGradient id="markglow" cx="50%" cy="50%" r="50%"><stop offset="0" stop-color="#ffb534" stop-opacity="0.4"/><stop offset="1" stop-color="#ffb534" stop-opacity="0"/></radialGradient><radialGradient id="vig" cx="50%" cy="44%" r="74%"><stop offset="0.55" stop-color="#000" stop-opacity="0"/><stop offset="1" stop-color="#000" stop-opacity="0.5"/></radialGradient><radialGradient id="gridmask" cx="50%" cy="40%" r="62%"><stop offset="0" stop-color="#fff"/><stop offset="0.66" stop-color="#fff" stop-opacity="0.26"/><stop offset="1" stop-color="#000"/></radialGradient><mask id="gm"><rect width="100%" height="100%" fill="url(#gridmask)"/></mask></defs><rect width="1080" height="1080" fill="#0a0805"/><ellipse cx="540" cy="200" rx="560" ry="360" fill="url(#g1)"/><ellipse cx="540" cy="980" rx="460" ry="260" fill="url(#g2)"/><g stroke="#ffffff" stroke-opacity="0.045" stroke-width="1" mask="url(#gm)"><line x1="100" y1="0" x2="100" y2="1080"/><line x1="200" y1="0" x2="200" y2="1080"/><line x1="300" y1="0" x2="300" y2="1080"/><line x1="400" y1="0" x2="400" y2="1080"/><line x1="500" y1="0" x2="500" y2="1080"/><line x1="600" y1="0" x2="600" y2="1080"/><line x1="700" y1="0" x2="700" y2="1080"/><line x1="800" y1="0" x2="800" y2="1080"/><line x1="900" y1="0" x2="900" y2="1080"/><line x1="1000" y1="0" x2="1000" y2="1080"/><line x1="0" y1="100" x2="1080" y2="100"/><line x1="0" y1="200" x2="1080" y2="200"/><line x1="0" y1="300" x2="1080" y2="300"/><line x1="0" y1="400" x2="1080" y2="400"/><line x1="0" y1="500" x2="1080" y2="500"/><line x1="0" y1="600" x2="1080" y2="600"/><line x1="0" y1="700" x2="1080" y2="700"/><line x1="0" y1="800" x2="1080" y2="800"/><line x1="0" y1="900" x2="1080" y2="900"/><line x1="0" y1="1000" x2="1080" y2="1000"/></g><text x="540" y="190" text-anchor="middle" font-family="Inter" font-weight="600" font-size="22" letter-spacing="7" fill="#c79a45">SOLANA SMART-MONEY TRACKER</text><circle cx="540" cy="330" r="150" fill="url(#markglow)"/><g transform="translate(444 234) scale(6)"><rect x="0" y="0" width="32" height="32" rx="9" fill="#000000"/><g filter="url(#glow)" fill="url(#brand)"><circle cx="8.6" cy="11" r="3.1"/><circle cx="23.4" cy="11" r="3.1"/><circle cx="16" cy="15.7" r="8.3"/><circle cx="16" cy="18.7" r="4" fill="#000000"/><circle cx="12.5" cy="13.7" r="1.55" fill="#000000"/><circle cx="19.5" cy="13.7" r="1.55" fill="#000000"/><circle cx="14.4" cy="18.5" r="0.85"/><circle cx="17.6" cy="18.5" r="0.85"/></g></g><text x="540" y="560" text-anchor="middle" font-family="Space Grotesk" font-weight="700" font-size="92" letter-spacing="-2.5" fill="#f5f1e8">SmartApe</text><rect x="476" y="600" width="128" height="40" rx="20" fill="#ffb534" fill-opacity="0.12" stroke="#ffb534" stroke-opacity="0.45"/><circle cx="506" cy="620" r="5" fill="#ffb534"/><text x="556" y="626" text-anchor="middle" font-family="Inter" font-weight="600" font-size="16" letter-spacing="2" fill="#ffd98a">LIVE</text><text x="540" y="730" text-anchor="middle" font-family="Space Grotesk" font-weight="600" font-size="48" letter-spacing="-0.5" fill="#efe9dc">Follow the smartest money</text><text x="540" y="792" text-anchor="middle" font-family="Space Grotesk" font-weight="600" font-size="48" letter-spacing="-0.5" fill="#efe9dc">on <tspan fill="#ffb534">Solana.</tspan></text><text x="540" y="858" text-anchor="middle" font-family="Inter" font-weight="500" font-size="26" fill="#b8a888">Scored wallets · anti-rug fused · real-time alerts</text><text x="540" y="968" text-anchor="middle" font-family="Inter" font-weight="700" font-size="30"><tspan fill="#ffd98a">smartape.fun</tspan></text><text x="540" y="1010" text-anchor="middle" font-family="Inter" font-weight="600" font-size="22"><tspan fill="#9b9183">t.me/smartapefun  ·  @smartape_fun</tspan></text><rect width="1080" height="1080" fill="url(#vig)"/></svg>