<svg xmlns="http://www.w3.org/2000/svg" width="1600" height="900" viewBox="0 0 1600 900" fill="none"><defs><linearGradient id="brand" x1="0" y1="6" x2="0" y2="25" gradientUnits="userSpaceOnUse"><stop offset="0" stop-color="#ffd36b"/><stop offset="1" stop-color="#e0901a"/></linearGradient><linearGradient id="sheen" x1="0" y1="0" x2="0" y2="1"><stop offset="0.1" stop-color="#fffaf0"/><stop offset="1" stop-color="#ffce85"/></linearGradient><linearGradient id="btn" x1="0" y1="0" x2="0" y2="1"><stop offset="0" stop-color="#ffd36b"/><stop offset="1" stop-color="#e0901a"/></linearGradient><filter id="glow" x="-60%" y="-60%" width="220%" height="220%" color-interpolation-filters="sRGB"><feGaussianBlur in="SourceGraphic" stdDeviation="0.8" result="b"/><feMerge><feMergeNode in="b"/><feMergeNode in="b"/><feMergeNode in="SourceGraphic"/></feMerge></filter><radialGradient id="g1" cx="50%" cy="50%" r="50%"><stop offset="0" stop-color="#ffb534" stop-opacity="0.15"/><stop offset="1" stop-color="#ffb534" stop-opacity="0"/></radialGradient><radialGradient id="g2" cx="50%" cy="50%" r="50%"><stop offset="0" stop-color="#ffb534" stop-opacity="0.1"/><stop offset="1" stop-color="#ffb534" stop-opacity="0"/></radialGradient><radialGradient id="markglow" cx="50%" cy="50%" r="50%"><stop offset="0" stop-color="#ffb534" stop-opacity="0.4"/><stop offset="1" stop-color="#ffb534" stop-opacity="0"/></radialGradient><radialGradient id="vig" cx="50%" cy="44%" r="74%"><stop offset="0.55" stop-color="#000" stop-opacity="0"/><stop offset="1" stop-color="#000" stop-opacity="0.5"/></radialGradient><radialGradient id="gridmask" cx="50%" cy="40%" r="62%"><stop offset="0" stop-color="#fff"/><stop offset="0.66" stop-color="#fff" stop-opacity="0.26"/><stop offset="1" stop-color="#000"/></radialGradient><mask id="gm"><rect width="100%" height="100%" fill="url(#gridmask)"/></mask></defs><rect width="1600" height="900" fill="#0a0805"/><ellipse cx="800" cy="80" rx="800" ry="300" fill="url(#g1)"/><g stroke="#ffffff" stroke-opacity="0.045" stroke-width="1" mask="url(#gm)"><line x1="100" y1="0" x2="100" y2="900"/><line x1="200" y1="0" x2="200" y2="900"/><line x1="300" y1="0" x2="300" y2="900"/><line x1="400" y1="0" x2="400" y2="900"/><line x1="500" y1="0" x2="500" y2="900"/><line x1="600" y1="0" x2="600" y2="900"/><line x1="700" y1="0" x2="700" y2="900"/><line x1="800" y1="0" x2="800" y2="900"/><line x1="900" y1="0" x2="900" y2="900"/><line x1="1000" y1="0" x2="1000" y2="900"/><line x1="1100" y1="0" x2="1100" y2="900"/><line x1="1200" y1="0" x2="1200" y2="900"/><line x1="1300" y1="0" x2="1300" y2="900"/><line x1="1400" y1="0" x2="1400" y2="900"/><line x1="1500" y1="0" x2="1500" y2="900"/><line x1="0" y1="100" x2="1600" y2="100"/><line x1="0" y1="200" x2="1600" y2="200"/><line x1="0" y1="300" x2="1600" y2="300"/><line x1="0" y1="400" x2="1600" y2="400"/><line x1="0" y1="500" x2="1600" y2="500"/><line x1="0" y1="600" x2="1600" y2="600"/><line x1="0" y1="700" x2="1600" y2="700"/><line x1="0" y1="800" x2="1600" y2="800"/></g><g transform="translate(80 40) scale(1.7)"><rect x="0" y="0" width="32" height="32" rx="9" fill="#000000"/><g filter="url(#glow)" fill="url(#brand)"><circle cx="8.6" cy="11" r="3.1"/><circle cx="23.4" cy="11" r="3.1"/><circle cx="16" cy="15.7" r="8.3"/><circle cx="16" cy="18.7" r="4" fill="#000000"/><circle cx="12.5" cy="13.7" r="1.55" fill="#000000"/><circle cx="19.5" cy="13.7" r="1.55" fill="#000000"/><circle cx="14.4" cy="18.5" r="0.85"/><circle cx="17.6" cy="18.5" r="0.85"/></g></g><text x="142" y="82" font-family="Space Grotesk" font-weight="700" font-size="30" letter-spacing="-1" fill="#f5f1e8">SmartApe</text><rect x="300" y="58" width="118" height="32" rx="8" fill="#1c1810" stroke="#ffffff" stroke-opacity="0.08"/><text x="359" y="79" text-anchor="middle" font-family="Inter" font-weight="600" font-size="14" letter-spacing="2" fill="#9b9183">TERMINAL</text><circle cx="1140" cy="74" r="5" fill="#ffb534"/><text x="1156" y="80" font-family="Inter" font-weight="600" font-size="16" letter-spacing="2" fill="#c79a45">LIVE · SMART MONEY</text><rect x="1400" y="50" width="120" height="48" rx="24" fill="url(#btn)"/><text x="1460" y="80" text-anchor="middle" font-family="Inter" font-weight="700" font-size="17" fill="#1c1206">Get access</text><rect x="80" y="140" width="352" height="148" rx="18" fill="#13100a" fill-opacity="0.9" stroke="#ffffff" stroke-opacity="0.07"/><circle cx="108" cy="176" r="5" fill="#ffb534"/><text x="124" y="182" font-family="Inter" font-weight="600" font-size="14.5" letter-spacing="1.2" fill="#9b9183">SMART-MONEY VOLUME · 24H</text><text x="106" y="246" font-family="Space Grotesk" font-weight="700" font-size="44" fill="#f5f1e8">$146k</text><rect x="450" y="140" width="352" height="148" rx="18" fill="#13100a" fill-opacity="0.9" stroke="#ffffff" stroke-opacity="0.07"/><circle cx="478" cy="176" r="5" fill="#ffb534"/><text x="494" y="182" font-family="Inter" font-weight="600" font-size="14.5" letter-spacing="1.2" fill="#9b9183">ACTIVE SMART WALLETS</text><text x="476" y="246" font-family="Space Grotesk" font-weight="700" font-size="44" fill="#f5f1e8">74</text><text x="476" y="272" font-family="Inter" font-size="15" fill="#9b9183">of 154 tracked</text><rect x="820" y="140" width="352" height="148" rx="18" fill="#13100a" fill-opacity="0.9" stroke="#ffffff" stroke-opacity="0.07"/><circle cx="848" cy="176" r="5" fill="#ffb534"/><text x="864" y="182" font-family="Inter" font-weight="600" font-size="14.5" letter-spacing="1.2" fill="#9b9183">SIGNALS FIRED · 24H</text><text x="846" y="246" font-family="Space Grotesk" font-weight="700" font-size="44" fill="#f5f1e8">2,000</text><rect x="1190" y="140" width="352" height="148" rx="18" fill="#13100a" fill-opacity="0.9" stroke="#ffffff" stroke-opacity="0.07"/><circle cx="1218" cy="176" r="5" fill="#ffb534"/><text x="1234" y="182" font-family="Inter" font-weight="600" font-size="14.5" letter-spacing="1.2" fill="#9b9183">TOP TOKEN · 1H</text><text x="1216" y="246" font-family="Space Grotesk" font-weight="700" font-size="44" fill="#f5f1e8">$Bountywork</text><rect x="80" y="320" width="880" height="468" rx="18" fill="#13100a" fill-opacity="0.9" stroke="#ffffff" stroke-opacity="0.07"/><circle cx="108" cy="360" r="6" fill="#ffb534"/><text x="126" y="368" font-family="Space Grotesk" font-weight="700" font-size="24" fill="#f0ebe0">Live Smart Money Feed</text><rect x="420" y="346" width="70" height="28" rx="14" fill="#ffb534" fill-opacity="0.13" stroke="#ffb534" stroke-opacity="0.4"/><text x="455" y="365" text-anchor="middle" font-family="Inter" font-weight="600" font-size="14" letter-spacing="1.5" fill="#ffd98a">LIVE</text><line x1="80" y1="392" x2="960" y2="392" stroke="#ffffff" stroke-opacity="0.07"/><rect x="102" y="422" width="36" height="36" rx="9" fill="#1c1810"/><circle cx="120" cy="440" r="6" fill="#22e5a4"/><text x="152" y="436" font-family="JetBrains Mono,monospace" font-size="21" fill="#f0ebe0">3gub…y13t</text><text x="152" y="458" font-family="Inter" font-size="15" fill="#22e5a4">Smart</text><rect x="330" y="424" width="62" height="26" rx="6" fill="rgba(255,122,122,0.15)"/><text x="361" y="442" text-anchor="middle" font-family="JetBrains Mono,monospace" font-weight="700" font-size="14" fill="#ff9b9b">SELL</text><circle cx="422" cy="433" r="5" fill="#ffb534"/><text x="434" y="440" font-family="JetBrains Mono,monospace" font-size="20" fill="#f0ebe0">$Philippines</text><text x="936" y="435" text-anchor="end" font-family="JetBrains Mono,monospace" font-size="20" fill="#f0ebe0">$40</text><text x="936" y="457" text-anchor="end" font-family="JetBrains Mono,monospace" font-size="15" fill="#9b9183">6s</text><line x1="80" y1="478" x2="960" y2="478" stroke="#ffffff" stroke-opacity="0.05"/><rect x="102" y="500" width="36" height="36" rx="9" fill="#1c1810"/><circle cx="120" cy="518" r="6" fill="#22e5a4"/><text x="152" y="514" font-family="JetBrains Mono,monospace" font-size="21" fill="#f0ebe0">MRiY…oCsa</text><text x="152" y="536" font-family="Inter" font-size="15" fill="#22e5a4">Smart</text><rect x="330" y="502" width="62" height="26" rx="6" fill="rgba(255,181,52,0.15)"/><text x="361" y="520" text-anchor="middle" font-family="JetBrains Mono,monospace" font-weight="700" font-size="14" fill="#ffd98a">BUY</text><circle cx="422" cy="511" r="5" fill="#ffb534"/><text x="434" y="518" font-family="JetBrains Mono,monospace" font-size="20" fill="#f0ebe0">$xtra</text><text x="936" y="513" text-anchor="end" font-family="JetBrains Mono,monospace" font-size="20" fill="#f0ebe0">$45</text><text x="936" y="535" text-anchor="end" font-family="JetBrains Mono,monospace" font-size="15" fill="#9b9183">7s</text><line x1="80" y1="556" x2="960" y2="556" stroke="#ffffff" stroke-opacity="0.05"/><rect x="102" y="578" width="36" height="36" rx="9" fill="#1c1810"/><circle cx="120" cy="596" r="6" fill="#22e5a4"/><text x="152" y="592" font-family="JetBrains Mono,monospace" font-size="21" fill="#f0ebe0">2Jy2…VUVg</text><text x="152" y="614" font-family="Inter" font-size="15" fill="#22e5a4">Smart</text><rect x="330" y="580" width="62" height="26" rx="6" fill="rgba(255,122,122,0.15)"/><text x="361" y="598" text-anchor="middle" font-family="JetBrains Mono,monospace" font-weight="700" font-size="14" fill="#ff9b9b">SELL</text><circle cx="422" cy="589" r="5" fill="#ffb534"/><text x="434" y="596" font-family="JetBrains Mono,monospace" font-size="20" fill="#f0ebe0">$USA</text><text x="936" y="591" text-anchor="end" font-family="JetBrains Mono,monospace" font-size="20" fill="#f0ebe0">$48</text><text x="936" y="613" text-anchor="end" font-family="JetBrains Mono,monospace" font-size="15" fill="#9b9183">11s</text><line x1="80" y1="634" x2="960" y2="634" stroke="#ffffff" stroke-opacity="0.05"/><rect x="102" y="656" width="36" height="36" rx="9" fill="#1c1810"/><circle cx="120" cy="674" r="6" fill="#22e5a4"/><text x="152" y="670" font-family="JetBrains Mono,monospace" font-size="21" fill="#f0ebe0">XFQE…nVEF</text><text x="152" y="692" font-family="Inter" font-size="15" fill="#22e5a4">Smart</text><rect x="330" y="658" width="62" height="26" rx="6" fill="rgba(255,181,52,0.15)"/><text x="361" y="676" text-anchor="middle" font-family="JetBrains Mono,monospace" font-weight="700" font-size="14" fill="#ffd98a">BUY</text><circle cx="422" cy="667" r="5" fill="#ffb534"/><text x="434" y="674" font-family="JetBrains Mono,monospace" font-size="20" fill="#f0ebe0">$WIF</text><text x="936" y="669" text-anchor="end" font-family="JetBrains Mono,monospace" font-size="20" fill="#f0ebe0">$52</text><text x="936" y="691" text-anchor="end" font-family="JetBrains Mono,monospace" font-size="15" fill="#9b9183">14s</text><line x1="80" y1="712" x2="960" y2="712" stroke="#ffffff" stroke-opacity="0.05"/><rect x="102" y="734" width="36" height="36" rx="9" fill="#1c1810"/><circle cx="120" cy="752" r="6" fill="#22e5a4"/><text x="152" y="748" font-family="JetBrains Mono,monospace" font-size="21" fill="#f0ebe0">ARqJ…uieb</text><text x="152" y="770" font-family="Inter" font-size="15" fill="#22e5a4">Smart</text><rect x="330" y="736" width="62" height="26" rx="6" fill="rgba(255,181,52,0.15)"/><text x="361" y="754" text-anchor="middle" font-family="JetBrains Mono,monospace" font-weight="700" font-size="14" fill="#ffd98a">BUY</text><circle cx="422" cy="745" r="5" fill="#ffb534"/><text x="434" y="752" font-family="JetBrains Mono,monospace" font-size="20" fill="#f0ebe0">$POPCAT</text><text x="936" y="747" text-anchor="end" font-family="JetBrains Mono,monospace" font-size="20" fill="#f0ebe0">$61</text><text x="936" y="769" text-anchor="end" font-family="JetBrains Mono,monospace" font-size="15" fill="#9b9183">18s</text><rect x="990" y="320" width="530" height="468" rx="18" fill="#13100a" fill-opacity="0.9" stroke="#ffffff" stroke-opacity="0.07"/><text x="1018" y="368" font-family="Space Grotesk" font-weight="700" font-size="24" fill="#f0ebe0">Top Smart Wallets · 7d</text><line x1="990" y1="392" x2="1520" y2="392" stroke="#ffffff" stroke-opacity="0.07"/><text x="1018" y="452" font-family="JetBrains Mono,monospace" font-size="20" fill="#9b9183">1</text><circle cx="1056" cy="446" r="6" fill="#22e5a4"/><text x="1078" y="442" font-family="JetBrains Mono,monospace" font-size="21" fill="#f0ebe0">3gub…y13t</text><text x="1078" y="464" font-family="Inter" font-size="15" fill="#9b9183">37% win · 278 trades</text><text x="1496" y="450" text-anchor="end" font-family="JetBrains Mono,monospace" font-weight="700" font-size="22" fill="#ffd98a">+$11</text><line x1="990" y1="496" x2="1520" y2="496" stroke="#ffffff" stroke-opacity="0.05"/><text x="1018" y="548" font-family="JetBrains Mono,monospace" font-size="20" fill="#9b9183">2</text><circle cx="1056" cy="542" r="6" fill="#22e5a4"/><text x="1078" y="538" font-family="JetBrains Mono,monospace" font-size="21" fill="#f0ebe0">2Jy2…VUVg</text><text x="1078" y="560" font-family="Inter" font-size="15" fill="#9b9183">50% win · 176 trades</text><text x="1496" y="546" text-anchor="end" font-family="JetBrains Mono,monospace" font-weight="700" font-size="22" fill="#ffd98a">+$162</text><line x1="990" y1="592" x2="1520" y2="592" stroke="#ffffff" stroke-opacity="0.05"/><text x="1018" y="644" font-family="JetBrains Mono,monospace" font-size="20" fill="#9b9183">3</text><circle cx="1056" cy="638" r="6" fill="#22e5a4"/><text x="1078" y="634" font-family="JetBrains Mono,monospace" font-size="21" fill="#f0ebe0">2Zhd…tSB1</text><text x="1078" y="656" font-family="Inter" font-size="15" fill="#9b9183">65% win · 152 trades</text><text x="1496" y="642" text-anchor="end" font-family="JetBrains Mono,monospace" font-weight="700" font-size="22" fill="#ffd98a">+$597</text><line x1="990" y1="688" x2="1520" y2="688" stroke="#ffffff" stroke-opacity="0.05"/><text x="1018" y="740" font-family="JetBrains Mono,monospace" font-size="20" fill="#9b9183">4</text><circle cx="1056" cy="734" r="6" fill="#22e5a4"/><text x="1078" y="730" font-family="JetBrains Mono,monospace" font-size="21" fill="#f0ebe0">ARqJ…uieb</text><text x="1078" y="752" font-family="Inter" font-size="15" fill="#9b9183">54% win · 141 trades</text><text x="1496" y="738" text-anchor="end" font-family="JetBrains Mono,monospace" font-weight="700" font-size="22" fill="#ff9b9b">-$55</text><text x="80" y="838" font-family="Inter" font-weight="600" font-size="22"><tspan fill="#ffd98a">smartape.fun</tspan><tspan fill="#5f564a">     ·     </tspan><tspan fill="#ffd98a">t.me/smartapefun</tspan><tspan fill="#5f564a">     ·     </tspan><tspan fill="#9b9183">@smartape_fun</tspan></text><rect width="1600" height="900" fill="url(#vig)"/></svg>