<svg xmlns="http://www.w3.org/2000/svg" width="1200" height="630" viewBox="0 0 1200 630" fill="none">
  <rect width="1200" height="630" fill="#08090A"/>
  <!-- glows -->
  <circle cx="140" cy="60" r="340" fill="#22e5a4" opacity="0.10"/>
  <circle cx="1140" cy="120" r="360" fill="#ffffff" opacity="0.04"/>
  <!-- subtle grid -->
  <g stroke="#ffffff" stroke-opacity="0.05">
    <path d="M0 157.5 H1200 M0 315 H1200 M0 472.5 H1200"/>
    <path d="M300 0 V630 M600 0 V630 M900 0 V630"/>
  </g>
  <!-- mark + kicker -->
  <defs>
    <linearGradient id="b" x1="0" y1="7" x2="0" y2="24" gradientUnits="userSpaceOnUse">
      <stop offset="0" stop-color="#5cffc4"/>
      <stop offset="1" stop-color="#11bf86"/>
    </linearGradient>
    <filter id="g" x="-50%" y="-50%" width="200%" height="200%" color-interpolation-filters="sRGB">
      <feGaussianBlur in="SourceGraphic" stdDeviation="0.85" result="bl"/>
      <feMerge><feMergeNode in="bl"/><feMergeNode in="bl"/><feMergeNode in="SourceGraphic"/></feMerge>
    </filter>
  </defs>
  <g transform="translate(96,128) scale(2.75)">
    <rect x="0" y="0" width="32" height="32" rx="9" fill="#000000"/>
    <g filter="url(#g)">
      <path d="M6 23.4 11 9.2 15 16.8 19 11.4 22.2 15.4 26 8" fill="none" stroke="url(#b)" stroke-width="2.4" stroke-linecap="round" stroke-linejoin="round"/>
      <path d="M9.4 13.8 13.4 13.8" stroke="url(#b)" stroke-width="2.4" stroke-linecap="round"/>
      <circle cx="26" cy="8" r="2.6" fill="url(#b)"/>
    </g>
  </g>
  <text x="208" y="166" font-family="'Segoe UI',Roboto,Helvetica,Arial,sans-serif" font-size="26" letter-spacing="7" fill="#9AA0A8">SMART-MONEY TRACKER · SOLANA</text>
  <text x="200" y="200" font-family="'Segoe UI',Roboto,Helvetica,Arial,sans-serif" font-size="22" letter-spacing="2" fill="#ECEDEF" font-weight="600">ApeWise</text>
  <!-- headline -->
  <text x="96" y="360" font-family="'Segoe UI',Roboto,Helvetica,Arial,sans-serif" font-size="82" font-weight="700" fill="#ECEDEF">Follow the smartest</text>
  <text x="96" y="452" font-family="'Segoe UI',Roboto,Helvetica,Arial,sans-serif" font-size="82" font-weight="700" fill="#ECEDEF">money on <tspan fill="#22e5a4">Solana.</tspan></text>
  <!-- sub -->
  <text x="96" y="520" font-family="'Segoe UI',Roboto,Helvetica,Arial,sans-serif" font-size="28" fill="#9AA0A8">Segmented wallets · anti-rug fused · real-time Telegram alerts</text>
  <!-- footer -->
  <text x="96" y="582" font-family="'Segoe UI',Roboto,Helvetica,Arial,sans-serif" font-size="24" fill="#6b7178">powered by Fourtis</text>
</svg>
