<svg xmlns="http://www.w3.org/2000/svg" width="1200" height="630" viewBox="0 0 1200 630" fill="none">
  <rect width="1200" height="630" fill="#0a0805"/>
  <!-- glows -->
  <circle cx="140" cy="60" r="340" fill="#ffb534" opacity="0.10"/>
  <circle cx="1140" cy="120" r="360" fill="#ffffff" opacity="0.04"/>
  <!-- subtle grid -->
  <g stroke="#ffffff" stroke-opacity="0.05">
    <path d="M0 157.5 H1200 M0 315 H1200 M0 472.5 H1200"/>
    <path d="M300 0 V630 M600 0 V630 M900 0 V630"/>
  </g>
  <!-- mark + kicker -->
  <defs>
    <linearGradient id="b" x1="0" y1="6" x2="0" y2="25" gradientUnits="userSpaceOnUse">
      <stop offset="0" stop-color="#ffd36b"/>
      <stop offset="1" stop-color="#e0901a"/>
    </linearGradient>
    <filter id="g" x="-50%" y="-50%" width="200%" height="200%" color-interpolation-filters="sRGB">
      <feGaussianBlur in="SourceGraphic" stdDeviation="0.8" result="bl"/>
      <feMerge><feMergeNode in="bl"/><feMergeNode in="bl"/><feMergeNode in="SourceGraphic"/></feMerge>
    </filter>
  </defs>
  <g transform="translate(96,128) scale(2.75)">
    <rect x="0" y="0" width="32" height="32" rx="9" fill="#000000"/>
    <g filter="url(#g)" fill="url(#b)">
      <circle cx="8.6" cy="11" r="3.1"/>
      <circle cx="23.4" cy="11" r="3.1"/>
      <circle cx="16" cy="15.7" r="8.3"/>
      <circle cx="16" cy="18.7" r="4" fill="#000000"/>
      <circle cx="12.5" cy="13.7" r="1.55" fill="#000000"/>
      <circle cx="19.5" cy="13.7" r="1.55" fill="#000000"/>
      <circle cx="14.4" cy="18.5" r="0.85"/>
      <circle cx="17.6" cy="18.5" r="0.85"/>
    </g>
  </g>
  <text x="208" y="166" font-family="'Segoe UI',Roboto,Helvetica,Arial,sans-serif" font-size="26" letter-spacing="7" fill="#b8a888">SMART-MONEY TRACKER · SOLANA</text>
  <text x="200" y="200" font-family="'Segoe UI',Roboto,Helvetica,Arial,sans-serif" font-size="22" letter-spacing="2" fill="#ECEDEF" font-weight="600">SmartApe</text>
  <!-- headline -->
  <text x="96" y="360" font-family="'Segoe UI',Roboto,Helvetica,Arial,sans-serif" font-size="82" font-weight="700" fill="#ECEDEF">Follow the smartest</text>
  <text x="96" y="452" font-family="'Segoe UI',Roboto,Helvetica,Arial,sans-serif" font-size="82" font-weight="700" fill="#ECEDEF">money on <tspan fill="#ffb534">Solana.</tspan></text>
  <!-- sub -->
  <text x="96" y="520" font-family="'Segoe UI',Roboto,Helvetica,Arial,sans-serif" font-size="28" fill="#9b9183">Segmented wallets · anti-rug fused · real-time Telegram alerts</text>
  <!-- footer -->
  <text x="96" y="582" font-family="'Segoe UI',Roboto,Helvetica,Arial,sans-serif" font-size="24" fill="#8a8175">smartape.fun</text>
</svg>
